HIERARCHY
ROOT SpineBase
{
  OFFSET 0.000000 0.000000 0.000000
  CHANNELS 6 Xposition Yposition Zposition Zrotation Xrotation Yrotation
  JOINT SpineMid
  {
    OFFSET 0.000000 30.256944 0.000000
    CHANNELS 3 Zrotation Xrotation Yrotation
    JOINT SpineShoulder
    {
      OFFSET 0.057243 22.432042 -0.794387
      CHANNELS 3 Zrotation Xrotation Yrotation
      JOINT Neck
      {
        OFFSET 0.037149 7.410695 -0.597637
        CHANNELS 3 Zrotation Xrotation Yrotation
        JOINT Head
        {
          OFFSET -3.140475 14.932760 0.808300
          CHANNELS 3 Zrotation Xrotation Yrotation
          End Site
          {
            OFFSET 0 0 0
          }
        }
      }
      JOINT ShoulderLeft
      {
        OFFSET -16.488291 -4.810516 7.635877
        CHANNELS 3 Zrotation Xrotation Yrotation
        JOINT ElbowLeft
        {
          OFFSET -1.305795 -27.800254 0.476862
          CHANNELS 3 Zrotation Xrotation Yrotation
          JOINT WristLeft
          {
            OFFSET -0.281224 -20.216538 -8.292206
            CHANNELS 3 Zrotation Xrotation Yrotation
            JOINT HandLeft
            {
              OFFSET 2.060912 -2.800723 -2.447451
              CHANNELS 3 Zrotation Xrotation Yrotation
              JOINT HandTipLeft
              {
                OFFSET 1.808089 -7.751019 -1.721535
                CHANNELS 3 Zrotation Xrotation Yrotation
                End Site
                {
                  OFFSET 0 0 0
                }
              }
              JOINT ThumbLeft
              {
                OFFSET 2.937322 0.527257 -3.222488
                CHANNELS 3 Zrotation Xrotation Yrotation
                End Site
                {
                  OFFSET 0 0 0
                }
              }
            }
          }
        }
      }
      JOINT ShoulderRight
      {
        OFFSET 13.412601 -4.118858 -8.092535
        CHANNELS 3 Zrotation Xrotation Yrotation
        JOINT ElbowRight
        {
          OFFSET 6.116148 -24.288620 -2.957228
          CHANNELS 3 Zrotation Xrotation Yrotation
          JOINT WristRight
          {
            OFFSET -5.561726 -20.342737 -5.956829
            CHANNELS 3 Zrotation Xrotation Yrotation
            JOINT HandRight
            {
              OFFSET -3.086242 -6.089363 -0.072017
              CHANNELS 3 Zrotation Xrotation Yrotation
              JOINT HandTipRight
              {
                OFFSET -2.170523 -5.978351 -0.802195
                CHANNELS 3 Zrotation Xrotation Yrotation
                End Site
                {
                  OFFSET 0 0 0
                }
              }
              JOINT ThumbRight
              {
                OFFSET -2.751107 1.523930 -1.560050
                CHANNELS 3 Zrotation Xrotation Yrotation
                End Site
                {
                  OFFSET 0 0 0
                }
              }
            }
          }
        }
      }
    }
  }
  JOINT HipLeft
  {
    OFFSET -6.401195 -0.157605 -0.679425
    CHANNELS 3 Zrotation Xrotation Yrotation
    JOINT KneeLeft
    {
      OFFSET 0.253935 -30.846404 0.987467
      CHANNELS 3 Zrotation Xrotation Yrotation
      JOINT AnkleLeft
      {
        OFFSET 5.298945 -38.794365 7.386019
        CHANNELS 3 Zrotation Xrotation Yrotation
        JOINT FootLeft
        {
          OFFSET -5.634044 -7.064756 -6.989563
          CHANNELS 3 Zrotation Xrotation Yrotation
          End Site
          {
            OFFSET 0 0 0
          }
        }
      }
    }
  }
  JOINT HipRight
  {
    OFFSET 6.770828 1.284641 -6.393463
    CHANNELS 3 Zrotation Xrotation Yrotation
    JOINT KneeRight
    {
      OFFSET 6.245545 -33.402882 -3.875641
      CHANNELS 3 Zrotation Xrotation Yrotation
      JOINT AnkleRight
      {
        OFFSET 1.940360 -36.712230 3.475298
        CHANNELS 3 Zrotation Xrotation Yrotation
        JOINT FootRight
        {
          OFFSET -2.030706 -7.248015 -8.759346
          CHANNELS 3 Zrotation Xrotation Yrotation
          End Site
          {
            OFFSET 0 0 0
          }
        }
      }
    }
  }
}
MOTION
Frames: 16
Frame Time: 0.033333
-20.201718 77.721552 382.922488 -0.000000 0.000000 23.451255 -0.000000 0.000000 -23.451255 -0.000000 0.000000 0.000000 -0.000000 0.000000 0.000000 0.000000 0.000000 0.000000 -0.000000 0.000000 0.000000 -0.000000 0.000000 0.000000 -0.000000 0.000000 0.000000 -0.000000 0.000000 0.000000 0.000000 0.000000 0.000000 0.000000 0.000000 0.000000 -0.000000 0.000000 0.000000 -0.000000 0.000000 0.000000 -0.000000 0.000000 0.000000 -0.000000 0.000000 0.000000 0.000000 0.000000 0.000000 0.000000 0.000000 0.000000 -0.000000 0.000000 -23.451255 -0.000000 0.000000 0.000000 -0.000000 0.000000 0.000000 0.000000 0.000000 0.000000 -0.000000 0.000000 -23.451255 -0.000000 0.000000 0.000000 -0.000000 0.000000 0.000000 0.000000 0.000000 0.000000
-20.212710 77.734894 382.845561 -0.044682 0.098431 23.190311 0.002311 -0.108073 -23.190271 -0.000000 0.000000 0.000000 -0.000000 0.000000 0.000000 0.000000 0.000000 0.000000 -0.000000 0.000000 0.000000 -0.411429 -1.097238 0.180781 -8.310472 -9.603772 -1.288303 5.414282 10.212024 0.792515 0.000000 0.000000 0.000000 0.000000 0.000000 0.000000 -0.000000 0.000000 0.000000 -0.000000 0.000000 0.000000 1.236417 -0.658131 0.327854 0.639235 0.771734 -0.632476 0.000000 0.000000 0.000000 0.000000 0.000000 0.000000 0.002311 -0.108073 -23.190271 -0.000000 0.000000 0.000000 1.083791 1.550657 -2.309839 0.000000 0.000000 0.000000 0.002311 -0.108073 -23.190271 -0.000000 0.000000 0.000000 -0.254758 -0.794616 0.532877 0.000000 0.000000 0.000000
-20.223100 77.742824 382.775828 -0.075499 0.181037 22.900522 -0.000899 -0.196147 -22.900404 -0.000000 0.000000 0.000000 -0.000000 0.000000 0.000000 0.000000 0.000000 0.000000 -0.000000 0.000000 0.000000 -0.725385 -1.989876 0.314834 -14.827690 -16.304040 -2.926942 9.404031 17.395988 0.952755 0.000000 0.000000 0.000000 0.000000 0.000000 0.000000 -0.000000 0.000000 0.000000 -0.000000 0.000000 0.000000 2.072653 -0.991617 0.500650 1.398592 1.106550 -1.044945 0.000000 0.000000 0.000000 0.000000 0.000000 0.000000 -0.000899 -0.196147 -22.900404 -0.000000 0.000000 0.000000 2.029275 2.783621 -4.233614 0.000000 0.000000 0.000000 -0.000899 -0.196147 -22.900404 -0.000000 0.000000 0.000000 -0.441134 -1.454112 0.948450 0.000000 0.000000 0.000000
-20.232889 77.745341 382.713289 -0.092472 0.247861 22.581905 -0.009797 -0.264368 -22.581727 -0.000000 0.000000 0.000000 0.565670 -0.732985 -0.181030 0.000000 0.000000 0.000000 -0.000000 0.000000 0.000000 -0.942980 -2.675684 0.405834 -19.441077 -20.422289 -4.201253 12.136466 21.767917 0.725405 0.000000 0.000000 0.000000 0.000000 0.000000 0.000000 -0.000000 0.000000 0.000000 -0.000000 0.000000 0.000000 2.505440 -1.001819 0.505686 2.309296 1.022164 -1.217730 0.000000 0.000000 0.000000 0.000000 0.000000 0.000000 -0.009797 -0.264368 -22.581727 -0.000000 0.000000 0.000000 2.794683 3.700245 -5.731186 0.000000 0.000000 0.000000 -0.009797 -0.264368 -22.581727 -0.000000 0.000000 0.000000 -0.560033 -1.970161 1.243313 0.000000 0.000000 0.000000
-20.242075 77.742447 382.657945 -0.095612 0.298935 22.234524 -0.024614 -0.312887 -22.234342 -0.000000 0.000000 0.000000 0.598891 -0.951627 -0.227435 0.000000 0.000000 0.000000 -0.000000 0.000000 0.000000 -1.065066 -3.153419 0.456522 -22.332640 -22.595965 -4.785215 13.989653 23.890964 0.161919 0.000000 0.000000 0.000000 0.000000 0.000000 0.000000 -0.000000 0.000000 0.000000 -0.000000 0.000000 0.000000 2.525217 -0.679121 0.333041 3.409475 0.524974 -1.128510 0.000000 0.000000 0.000000 0.000000 0.000000 0.000000 -0.024614 -0.312887 -22.234342 -0.000000 0.000000 0.000000 3.349750 4.308371 -6.776380 0.000000 0.000000 0.000000 -0.202031 -1.136709 -22.408943 -0.150038 0.829243 0.173443 -0.612173 -2.336154 1.414637 0.000000 0.000000 0.000000
-20.250660 77.734140 382.609795 -0.084920 0.334277 21.858491 -0.045642 -0.341862 -21.858379 -0.000000 0.000000 0.000000 0.554059 -1.156756 -0.267554 0.000000 0.000000 0.000000 -0.945267 -0.647936 0.008870 -0.147278 -2.774518 0.461456 -23.727881 -23.280160 -4.581218 15.285688 24.185616 -0.776983 0.000000 0.000000 0.000000 0.000000 0.000000 0.000000 -0.000000 0.000000 0.000000 -0.000000 0.000000 0.000000 2.114786 -0.001135 -0.024648 4.747781 -0.389297 -0.748601 0.000000 0.000000 0.000000 0.000000 0.000000 0.000000 -0.151932 -1.168065 -21.859728 -0.208989 0.806371 0.001419 3.675536 4.617623 -7.354947 0.000000 0.000000 0.000000 -0.230339 -1.145671 -22.028065 -0.130267 0.814400 0.168213 -0.597950 -2.547188 1.460139 0.000000 0.000000 0.000000
-20.257792 77.723921 382.588100 -0.078478 0.400218 21.401850 -0.072976 -0.401258 -21.401831 -0.000000 0.000000 0.000000 0.457138 -1.139600 -0.259794 0.000000 0.000000 0.000000 -1.124883 -0.923740 0.015016 -0.199168 -4.202563 0.553316 -24.395107 -21.011336 -1.492965 17.990931 21.144913 -4.441272 0.000000 0.000000 0.000000 0.000000 0.000000 0.000000 -0.000000 0.000000 0.000000 1.293836 -1.160774 -0.048702 -0.360501 2.631911 -0.715957 8.972322 -2.928392 0.361680 0.000000 0.000000 0.000000 0.000000 0.000000 0.000000 -0.181218 -1.422063 -21.403004 -0.271765 0.989903 0.001798 3.979611 4.717711 -7.754086 0.000000 0.000000 0.000000 -0.368372 -1.631181 -21.661764 -0.323998 2.203497 0.298095 -0.420203 -3.442520 1.349259 0.000000 0.000000 0.000000
-20.268619 77.703752 382.599609 -0.048177 0.416434 20.823227 -0.103007 -0.406359 -20.823417 -0.000000 0.000000 0.000000 0.176255 -1.392282 -0.300321 0.000000 0.000000 0.000000 -1.377688 -1.546771 0.030402 0.032758 -3.213070 0.539625 -23.989201 -19.957145 -0.012048 18.803488 18.330372 -6.310559 0.000000 0.000000 0.000000 0.000000 0.000000 0.000000 -0.000000 0.000000 0.000000 1.386817 -1.076137 -0.099465 -1.135214 4.406413 -1.580412 9.706879 -4.492848 1.565807 0.000000 0.000000 0.000000 0.000000 0.000000 0.000000 -0.200399 -1.558332 -20.824040 -0.318531 1.111339 0.002042 3.690351 2.736234 -5.929970 0.000000 0.000000 0.000000 -0.353817 -1.423152 -21.036716 -0.130905 1.039049 0.210482 -0.403795 -2.059951 1.080316 0.000000 0.000000 0.000000
-20.290650 77.685697 382.594927 0.009861 0.331597 20.397157 -0.124814 -0.307369 -20.397521 -0.000000 0.000000 0.000000 -0.153005 -1.506398 -0.310863 0.000000 0.000000 0.000000 -1.854745 -2.307240 0.039174 0.896167 -1.480386 0.343436 -20.633995 -14.722710 3.932679 14.118063 12.469645 -6.677302 0.000000 0.000000 0.000000 0.000000 0.000000 0.000000 -0.352849 -0.799213 -0.161016 1.722252 0.294253 -0.120153 -3.443195 5.665868 -2.194363 11.574782 -5.949725 2.811744 0.000000 0.000000 0.000000 0.000000 0.000000 0.000000 -0.178665 -1.508910 -20.396010 -0.368316 1.144972 0.001316 3.710756 2.536022 -5.795358 0.000000 0.000000 0.000000 -0.124814 -0.307369 -20.397521 -0.000000 0.000000 0.000000 -0.266256 -2.098379 0.924722 0.000000 0.000000 0.000000
-20.324227 77.675815 382.551225 0.082490 0.336790 20.357508 -0.194501 -0.287057 -20.358238 -0.000000 0.000000 0.000000 -0.472810 -1.650074 -0.328804 0.000000 0.000000 0.000000 -2.582771 -3.261118 0.035319 2.660128 1.747501 -0.195782 -18.665726 -14.264698 3.524541 7.235823 8.856108 -4.322558 0.000000 0.000000 0.000000 0.000000 0.000000 0.000000 -0.261527 -1.187179 -0.270319 1.606637 1.968949 -0.381194 -5.870442 5.680094 -2.398194 12.079433 -5.057538 2.904731 0.000000 0.000000 0.000000 0.000000 0.000000 0.000000 -0.181042 -1.554765 -20.353247 -0.453602 1.183866 -0.000088 2.973870 2.600098 -5.072077 0.000000 0.000000 0.000000 -0.194501 -0.287057 -20.358238 0.287263 -1.175153 -0.031938 0.201705 -1.150895 0.101132 0.000000 0.000000 0.000000
-20.338665 77.667643 382.382141 0.201875 0.241362 20.059326 -0.272416 -0.157477 -20.060125 -0.000000 0.000000 0.000000 -0.700133 -3.078104 -0.630138 0.000000 0.000000 0.000000 -3.702376 -4.953758 0.009068 5.923844 7.857698 -1.497677 -12.983320 -14.594211 0.239211 2.049320 11.479809 1.652183 0.000000 0.000000 0.000000 0.000000 0.000000 0.000000 0.259331 -1.130005 -0.313771 -2.186544 3.405613 0.327829 -3.640870 0.726572 -1.399672 6.761988 1.465139 -0.146065 0.000000 0.000000 0.000000 0.000000 0.000000 0.000000 -0.357851 -1.612762 -20.059529 -0.418979 1.396296 0.003190 1.988324 3.897605 -5.041243 0.000000 0.000000 0.000000 -0.139052 2.426794 -19.512618 1.160122 -4.708165 -0.583287 0.721232 0.855692 -0.988357 0.000000 0.000000 0.000000
-20.333903 77.720803 382.133522 0.326682 -0.042435 19.840822 -0.292888 0.150794 -19.840315 -0.000000 0.000000 0.000000 -0.856582 -4.754227 -0.993386 0.000000 0.000000 0.000000 -4.747152 -6.150270 -0.047356 10.044007 14.457907 -3.542733 -9.533567 -15.501185 -0.108885 3.461572 14.854777 2.936084 0.000000 0.000000 0.000000 0.000000 0.000000 0.000000 0.960383 -0.825540 -0.317505 -8.422423 4.301400 1.840458 -2.289882 -1.732646 -2.137035 2.149210 3.185622 0.221025 0.000000 0.000000 0.000000 0.000000 0.000000 0.000000 -0.597831 -1.308838 -19.848872 -0.208789 1.476455 0.008165 2.837731 5.918164 -7.434537 0.000000 0.000000 0.000000 0.118078 5.291417 -18.774356 1.824813 -8.285240 -1.080774 1.586168 2.534454 -2.462108 0.000000 0.000000 0.000000
-20.421131 77.970463 381.940324 0.357315 -0.434364 19.333301 0.217562 -0.205246 -19.308468 0.121561 0.009402 0.038976 -1.655019 -5.739789 -1.382012 0.000000 0.000000 0.000000 -5.746355 -5.122344 -0.078355 14.038958 19.574230 -5.943671 -2.523557 -16.469931 -1.908431 -1.172050 23.119082 8.484278 0.000000 0.000000 0.000000 0.000000 0.000000 0.000000 1.364876 -0.135593 -0.494901 -15.725472 6.134860 3.566195 0.898077 -9.955175 -1.111836 -6.822038 11.778641 -0.140480 0.000000 0.000000 0.000000 0.000000 0.000000 0.000000 -0.574623 -0.945777 -19.340827 0.317371 0.560755 -0.043686 2.336601 8.203434 -8.337384 0.000000 0.000000 0.000000 0.781976 8.713802 -17.703227 2.087595 -12.289771 -1.664754 2.509626 5.261278 -4.154450 0.000000 0.000000 0.000000
-20.077985 77.612107 381.330130 0.846642 -1.201370 19.092188 0.231710 -0.268266 -19.040327 0.125835 -0.027077 0.064550 -1.944743 -6.090228 -1.673144 0.000000 0.000000 0.000000 -6.608254 -5.077255 -0.051675 18.158034 25.441809 -8.856771 5.804394 -15.440947 -2.287112 -6.272982 27.371696 11.800362 0.000000 0.000000 0.000000 0.000000 0.000000 0.000000 2.374852 0.910330 -0.732201 -24.670729 6.792123 5.964638 -0.592210 -19.621135 -1.207285 -10.365953 21.092468 1.518185 0.000000 0.000000 0.000000 0.000000 0.000000 0.000000 -1.804448 0.264628 -19.100788 1.635096 -0.479583 -0.120403 1.237988 9.928347 -7.834703 0.000000 0.000000 0.000000 1.189077 13.322477 -16.814326 2.015225 -16.252154 -2.456225 3.927590 7.373503 -5.971643 0.000000 0.000000 0.000000
-19.543234 76.825737 380.520337 1.573351 -2.073766 18.690467 0.205162 -0.274425 -18.592494 0.096452 -0.092504 0.097201 -2.173952 -6.641526 -2.033100 0.000000 0.000000 0.000000 -6.893587 -3.662702 0.013829 21.060613 29.243920 -11.252601 15.093083 -9.716273 -1.432185 -13.359401 24.659222 12.825613 0.000000 0.000000 0.000000 0.000000 0.000000 0.000000 3.480848 2.314496 -1.010601 -34.230088 5.836514 8.373718 -4.833973 -25.355790 -4.254000 -6.841991 22.877383 2.683498 0.000000 0.000000 0.000000 0.000000 0.000000 0.000000 -3.891675 1.713760 -18.631482 3.876706 -1.613812 -0.160811 -1.739877 9.915267 -4.216157 0.000000 0.000000 0.000000 1.364455 18.294992 -15.771659 1.853662 -18.923599 -3.254633 4.155628 8.564268 -6.248315 0.000000 0.000000 0.000000
-18.776839 75.532403 379.618089 2.620763 -3.072850 18.861728 0.195780 -0.262466 -18.683432 0.085865 -0.033041 0.143785 -2.744229 -6.530314 -2.259441 0.000000 0.000000 0.000000 -7.687147 -1.918894 0.051382 23.200394 31.945185 -12.965546 29.486675 -0.074949 -3.401514 -18.724779 18.965513 12.369409 0.000000 0.000000 0.000000 0.000000 0.000000 0.000000 4.936181 3.541103 -1.514790 -44.293164 3.022430 10.630509 -12.694675 -28.275151 -9.119447 3.032766 23.514533 1.149724 0.000000 0.000000 0.000000 0.000000 0.000000 0.000000 -6.695663 4.240007 -18.552025 6.996581 -3.786080 -0.153173 -3.310768 11.408953 -3.020989 0.000000 0.000000 0.000000 1.488426 23.692065 -15.338706 1.441750 -20.748765 -4.165800 5.284793 8.648173 -7.235608 0.000000 0.000000 0.000000
